<svg width="26" height="24" viewBox="0 0 26 24" fill="none" xmlns="http://www.w3.org/2000/svg">
<path d="M8.78018 17.1459C8.5595 16.8851 8.44916 16.5894 8.44916 16.2588C8.44916 15.9282 8.5595 15.6521 8.78018 15.4306L11.007 13.2038H2.37046C2.02941 13.2038 1.74333 13.0882 1.51222 12.8571C1.2811 12.626 1.16595 12.3403 1.16675 12.0001C1.16675 11.659 1.28231 11.373 1.51342 11.1418C1.74453 10.9107 2.03021 10.7956 2.37046 10.7964H11.007L8.78018 8.56953C8.53943 8.32879 8.41906 8.04271 8.41906 7.71129C8.41906 7.37987 8.53943 7.09419 8.78018 6.85425C9.00085 6.61351 9.2769 6.49314 9.60832 6.49314C9.93974 6.49314 10.2154 6.60348 10.4353 6.82416L14.7686 11.1575C14.889 11.2779 14.9744 11.4083 15.025 11.5487C15.0755 11.6891 15.1004 11.8396 15.0996 12.0001C15.0996 12.1606 15.0747 12.311 15.025 12.4515C14.9752 12.5919 14.8898 12.7223 14.7686 12.8427L10.4353 17.176C10.1945 17.4167 9.91366 17.5271 9.59268 17.507C9.27169 17.487 9.00085 17.3666 8.78018 17.1459ZM15.2038 22.8334C14.8627 22.8334 14.5771 22.7183 14.3467 22.4879C14.1164 22.2576 14.0009 21.9716 14.0001 21.6297C14.0001 21.2887 14.1156 21.0026 14.3467 20.7715C14.5779 20.5404 14.8635 20.4252 15.2038 20.426H22.426V3.57416H15.2038C14.8627 3.57416 14.5767 3.4586 14.3455 3.22749C14.1144 2.99638 13.9993 2.7107 14.0001 2.37046C14.0001 2.02941 14.1156 1.74333 14.3467 1.51221C14.5779 1.2811 14.8635 1.16595 15.2038 1.16675H22.426C23.088 1.16675 23.655 1.40268 24.1268 1.87453C24.5987 2.34638 24.8342 2.91292 24.8334 3.57416V20.426C24.8334 21.088 24.5975 21.655 24.1256 22.1268C23.6538 22.5987 23.0872 22.8342 22.426 22.8334H15.2038Z" fill="white" stroke="white"/>
</svg>
